# Blender v2.80 (sub 75) OBJ File: ''
# www.blender.org
mtllib untitled.mtl
o Cube
v 1.000000 -1.000000 -1.000000
v 1.000000 -1.000000 1.000000
v -1.000000 -1.000000 -1.000000
v -1.000000 -1.000000 1.000000
v 1.273486 1.439369 -0.262611
v 0.954095 0.420452 -0.529869
v -0.954095 0.420452 0.529869
v -1.273486 1.439369 0.262611
v 0.262611 1.439369 1.273486
v 0.529869 0.420452 0.954095
v -0.262611 1.439369 -1.273486
v -0.529869 0.420452 -0.954095
v 1.388042 2.461157 0.046262
v 1.118916 2.659054 0.084169
v -0.046262 2.461157 1.388042
v -0.084169 2.659054 1.118916
v 0.084169 2.659054 -1.118916
v 0.046262 2.461157 -1.388042
v -1.118916 2.659054 -0.084169
v -1.388042 2.461157 -0.046262
v -0.631306 0.219684 -1.136743
v 1.136743 0.219684 -0.631306
v -0.220416 1.238601 -1.068867
v 1.068867 1.238601 -0.220416
v 0.631306 0.219684 1.136743
v 0.220416 1.238601 1.068867
v -1.136743 0.219685 0.631306
v -1.068867 1.238601 0.220416
vt 0.861479 0.500000
vt 0.791667 0.750000
vt 0.791667 0.500000
vt 0.611479 0.500000
vt 0.541667 0.750000
vt 0.541667 0.500000
vt 0.625000 0.750000
vt 0.375000 1.000000
vt 0.375000 0.750000
vt 0.599179 0.025821
vt 0.400821 0.224179
vt 0.400821 0.025821
vt 0.611479 0.250000
vt 0.541667 0.250000
vt 0.708333 0.500000
vt 0.625000 0.500000
vt 0.783300 0.503840
vt 0.716700 0.746160
vt 0.716700 0.496160
vt 0.208333 0.500000
vt 0.125000 0.750000
vt 0.125000 0.500000
vt 0.283300 0.503840
vt 0.216700 0.746160
vt 0.216700 0.496160
vt 0.458333 0.500000
vt 0.375000 0.500000
vt 0.533300 0.503840
vt 0.466700 0.746160
vt 0.466700 0.496160
vt 0.458333 0.250000
vt 0.375000 0.250000
vt 0.533300 0.253840
vt 0.466700 0.246160
vt 0.617522 0.250000
vt 0.375000 0.250000
vt 0.375000 0.242522
vt 0.375000 0.000000
vt 0.599179 0.224179
vt 0.625000 0.007478
vt 0.625000 0.250000
vt 0.382478 0.000000
vt 0.625000 0.000000
vt 0.361479 0.500000
vt 0.291667 0.750000
vt 0.291667 0.500000
vt 0.861479 0.750000
vt 0.611479 0.750000
vt 0.625000 1.000000
vt 0.708333 0.750000
vt 0.783300 0.753840
vt 0.208333 0.750000
vt 0.283300 0.753840
vt 0.458333 0.750000
vt 0.533300 0.753840
vt 0.361479 0.750000
vn 0.5321 -0.2515 -0.8085
vn -0.8085 -0.2515 -0.5321
vn 0.0000 -1.0000 0.0000
vn 0.0000 1.0000 -0.0000
vn -0.5321 -0.2515 0.8085
vn 0.0000 -0.1114 -0.9938
vn 0.2673 -0.2323 -0.9352
vn 0.9938 -0.1114 0.0000
vn 0.9352 -0.2323 0.2673
vn -0.9938 -0.1114 0.0000
vn -0.9352 -0.2323 -0.2673
vn 0.0000 -0.1114 0.9938
vn -0.2673 -0.2323 0.9352
vn -0.5733 0.6195 0.5363
vn 0.5363 0.6195 0.5733
vn -0.5363 0.6195 -0.5733
vn 0.5733 0.6195 -0.5363
vn 0.8085 -0.2515 0.5321
vn 0.7247 0.1237 -0.6779
vn -0.6779 0.1237 -0.7247
vn -0.7247 0.1237 0.6779
vn 0.2660 0.2515 -0.9306
vn 0.5347 0.2323 -0.8125
vn 0.9306 0.2515 0.2660
vn 0.8125 0.2323 0.5347
vn -0.9306 0.2515 -0.2660
vn -0.8125 0.2323 -0.5347
vn -0.2660 0.2515 0.9306
vn -0.5347 0.2323 0.8125
vn -0.4960 0.7563 0.4266
vn 0.4266 0.7563 0.4960
vn -0.4266 0.7563 -0.4960
vn 0.4960 0.7563 -0.4266
vn 0.6779 0.1237 0.7247
vn 0.2214 0.5927 -0.7744
vn 0.4428 -0.5927 -0.6728
vn 0.7744 0.5927 0.2214
vn 0.6728 -0.5927 0.4428
vn -0.7744 0.5927 -0.2214
vn -0.6728 -0.5927 -0.4428
vn -0.2214 0.5927 0.7744
vn -0.4428 -0.5927 0.6728
usemtl Material
s off
f 18/1/1 5/2/1 11/3/1
f 20/4/2 11/5/2 8/6/2
f 1/7/3 4/8/3 3/9/3
f 17/10/4 16/11/4 14/12/4
f 15/13/5 8/6/5 9/14/5
f 21/15/6 1/7/6 3/16/6
f 23/17/7 6/18/7 12/19/7
f 22/20/8 2/21/8 1/22/8
f 24/23/9 10/24/9 6/25/9
f 27/26/10 3/9/10 4/27/10
f 28/28/11 12/29/11 7/30/11
f 25/31/12 4/27/12 2/32/12
f 26/33/13 7/30/13 10/34/13
f 16/11/14 20/35/14 15/36/14
f 14/12/15 15/37/15 13/38/15
f 19/39/16 18/40/16 20/41/16
f 17/10/17 13/42/17 18/43/17
f 13/44/18 9/45/18 5/46/18
f 18/1/19 13/47/19 5/2/19
f 20/4/20 18/48/20 11/5/20
f 1/7/3 2/49/3 4/8/3
f 17/10/4 19/39/4 16/11/4
f 15/13/21 20/4/21 8/6/21
f 21/15/22 22/50/22 1/7/22
f 23/17/23 24/51/23 6/18/23
f 22/20/24 25/52/24 2/21/24
f 24/23/25 26/53/25 10/24/25
f 27/26/26 21/54/26 3/9/26
f 28/28/27 23/55/27 12/29/27
f 25/31/28 27/26/28 4/27/28
f 26/33/29 28/28/29 7/30/29
f 16/11/30 19/39/30 20/35/30
f 14/12/31 16/11/31 15/37/31
f 19/39/32 17/10/32 18/40/32
f 17/10/33 14/12/33 13/42/33
f 13/44/34 15/56/34 9/45/34
usemtl Material.001
f 6/18/35 21/15/35 12/19/35
f 23/17/36 5/2/36 24/51/36
f 10/24/37 22/20/37 6/25/37
f 24/23/38 9/45/38 26/53/38
f 12/29/39 27/26/39 7/30/39
f 28/28/40 11/5/40 23/55/40
f 10/34/41 27/26/41 25/31/41
f 26/33/42 8/6/42 28/28/42
f 6/18/35 22/50/35 21/15/35
f 23/17/36 11/3/36 5/2/36
f 10/24/37 25/52/37 22/20/37
f 24/23/38 5/46/38 9/45/38
f 12/29/39 21/54/39 27/26/39
f 28/28/40 8/6/40 11/5/40
f 10/34/41 7/30/41 27/26/41
f 26/33/42 9/14/42 8/6/42
